<!--
The 0° Rotation row's glyph: the screen the way it was built.

  Settings > Display > Orientation is four drawings of one monitor rather than
  four labels, because the thing being chosen is a shape: the row that matches
  what is in front of the user is the one they can pick without reading. The
  monitor is setting-display.svg's, to the coordinate, so the row and the screen
  list it hangs under are drawn from the same object.

  The stand is what says which way up it is, and it is the only thing that
  differs between the four. The lamp does not turn with the monitor: every
  gradient still runs top to bottom and the shadow still falls the same way,
  because the light is the room's rather than the panel's.
-->
<svg xmlns="http://www.w3.org/2000/svg" viewBox="0 0 32 32">
  <defs>
    <!-- The material and the lamp above it, identical to setting-display.svg's:
         these are the same monitor, and a row whose screen was lit differently
         from the screen list's would read as a different object. -->
    <linearGradient id="face" x1="0" y1="0" x2="0" y2="1">
      <stop offset="0" stop-color="#f6f6f6"/>
      <stop offset="0.35" stop-color="#e9e9e9"/>
      <stop offset="0.58" stop-color="#d6d6d6"/>
      <stop offset="0.78" stop-color="#dfdfdf"/>
      <stop offset="0.92" stop-color="#eeeeee"/>
      <stop offset="1" stop-color="#f8f8f8"/>
    </linearGradient>
    <linearGradient id="gloss" x1="0" y1="0" x2="0" y2="1">
      <stop offset="0" stop-color="#ffffff" stop-opacity="1"/>
      <stop offset="0.72" stop-color="#ffffff" stop-opacity="0.96"/>
      <stop offset="1" stop-color="#ffffff" stop-opacity="0.9"/>
    </linearGradient>
    <linearGradient id="edge" x1="0" y1="0" x2="0" y2="1">
      <stop offset="0" stop-color="#ffffff" stop-opacity="0.95"/>
      <stop offset="0.18" stop-color="#ffffff" stop-opacity="0"/>
      <stop offset="0.9" stop-color="#ffffff" stop-opacity="0"/>
      <stop offset="1" stop-color="#ffffff" stop-opacity="0.55"/>
    </linearGradient>
    <linearGradient id="turn" x1="0" y1="0" x2="1" y2="0">
      <stop offset="0" stop-color="#000000" stop-opacity="0.12"/>
      <stop offset="0.22" stop-color="#000000" stop-opacity="0"/>
      <stop offset="0.78" stop-color="#000000" stop-opacity="0"/>
      <stop offset="1" stop-color="#000000" stop-opacity="0.16"/>
    </linearGradient>
    <linearGradient id="recess" x1="0" y1="0" x2="0" y2="1">
      <stop offset="0" stop-color="#8e8e8e"/>
      <stop offset="0.45" stop-color="#a8a8a8"/>
      <stop offset="1" stop-color="#dedede"/>
    </linearGradient>
    <filter id="drop" x="-40%" y="-40%" width="190%" height="190%">
      <feDropShadow dx="0.5" dy="1.25" stdDeviation="0.5"
                    flood-color="#3c3c3c" flood-opacity="0.5"/>
    </filter>
    <filter id="polish" x="-10%" y="-10%" width="120%" height="120%">
      <feGaussianBlur stdDeviation="0.16"/>
    </filter>

    <path id="bezel" d="M4.4 5.1h23.2a2.0 2.0 0 0 1 2.0 2.0v12.9a2.0 2.0 0 0 1 -2.0 2.0h-23.2a2.0 2.0 0 0 1 -2.0 -2.0v-12.9a2.0 2.0 0 0 1 2.0 -2.0z"/>
    <path id="bezel-gloss" d="M1.0 3.0H31.0V12.2C22.84 14.9 9.16 14.9 1.0 12.2z"/>
    <clipPath id="bezel-clip"><use href="#bezel"/></clipPath>
    <path id="pane" d="M5.4 7.6h21.2v11.9h-21.2z"/>
    <clipPath id="pane-clip"><use href="#pane"/></clipPath>
  </defs>

  <g filter="url(#drop)">
    <!-- Stand first, so the bezel sits in front of the neck it grows out of. -->
    <path d="M13.4 21.4h5.2v4.2h-5.2z" fill="url(#face)"/>
    <path d="M8.6 25.4h14.8a1.1 1.1 0 0 1 1.1 1.1v0.8a1.1 1.1 0 0 1 -1.1 1.1h-14.8a1.1 1.1 0 0 1 -1.1 -1.1v-0.8a1.1 1.1 0 0 1 1.1 -1.1z" fill="url(#face)"/>
    <path d="M8.6 25.4h14.8a1.1 1.1 0 0 1 1.1 1.1v0.8a1.1 1.1 0 0 1 -1.1 1.1h-14.8a1.1 1.1 0 0 1 -1.1 -1.1v-0.8a1.1 1.1 0 0 1 1.1 -1.1z" fill="none" stroke="url(#edge)" stroke-width="0.7"/>

    <use href="#bezel" fill="url(#face)"/>
    <g clip-path="url(#bezel-clip)">
      <use href="#bezel-gloss" fill="url(#gloss)" filter="url(#polish)"/>
    </g>
    <use href="#bezel" fill="url(#turn)"/>

    <use href="#pane" fill="url(#recess)"/>
    <g clip-path="url(#pane-clip)">
      <path d="M5.4 17.83L15.15 7.6L20.66 7.6L9.43 19.5z" fill="#ffffff" fill-opacity="0.34" filter="url(#polish)"/>
      <path d="M5.4 12.36L10.28 7.6L12.61 7.6L5.4 14.5z" fill="#ffffff" fill-opacity="0.22" filter="url(#polish)"/>
    </g>
    <use href="#pane" fill="none" stroke="url(#edge)" stroke-width="0.7"/>

    <g clip-path="url(#bezel-clip)">
      <use href="#bezel" fill="none" stroke="url(#edge)" stroke-width="1.3"/>
    </g>
  </g>
</svg>
